<svg xmlns="http://www.w3.org/2000/svg" xmlns:cc="http://web.resource.org/cc/" xmlns:svg="http://www.w3.org/2000/svg" xmlns:xlink="http://www.w3.org/1999/xlink" id="svg2" height="190" x="0" y="0" preserveAspectRatio="xMinYMin meet" version="1.0" viewBox="0 0 140 190"><defs id="defs3"><linearGradient id="linearGradient3920"><stop style="stop-color:#fff;stop-opacity:1" id="stop3922" offset="0"/><stop style="stop-color:#fff;stop-opacity:0" id="stop3924" offset="1"/></linearGradient><linearGradient id="linearGradient2060"><stop style="stop-color:#ebf0d0;stop-opacity:1" id="stop2062" offset="0"/><stop style="stop-color:#ffffeb;stop-opacity:1" id="stop2064" offset="1"/></linearGradient><linearGradient id="linearGradient1575"><stop style="stop-color:#fff;stop-opacity:.5" id="stop1576" offset="0"/><stop style="stop-color:#fff;stop-opacity:0" id="stop1577" offset="1"/></linearGradient><linearGradient id="linearGradient4853" x1="2" x2="109" y1="63.1" y2="128.695" gradientTransform="translate(0.000000,-1.000000)" gradientUnits="userSpaceOnUse" xlink:href="#linearGradient2060"/><linearGradient id="linearGradient3926" x1="233.887" x2="159.435" y1="142.784" y2="209.561" gradientUnits="userSpaceOnUse" xlink:href="#linearGradient3920"/><linearGradient id="linearGradient1555" x1="336.948" x2="382.381" y1="2.424" y2="42.539" gradientTransform="scale(0.900444,1.110563)" gradientUnits="userSpaceOnUse" xlink:href="#linearGradient1575"/><linearGradient id="linearGradient1461"><stop style="stop-color:#fff;stop-opacity:.5" id="stop1463" offset="0"/><stop style="stop-color:#fff;stop-opacity:0" id="stop1465" offset="1"/></linearGradient><linearGradient id="linearGradient1473" x1="336.948" x2="382.381" y1="2.424" y2="42.539" gradientTransform="matrix(0.900444,0.000000,0.000000,1.110563,-12.67155,196.4597)" gradientUnits="userSpaceOnUse" xlink:href="#linearGradient1575"/><linearGradient id="linearGradient3792" x1="2" x2="109" y1="63.1" y2="128.695" gradientTransform="translate(0.000000,-1.000000)" gradientUnits="userSpaceOnUse" xlink:href="#linearGradient2060"/></defs><g id="layer1"><g id="g5630"><path id="rect1306" d="M 18.000000,1.9999995 L 121.00000,1.9999995 C 129.86400,1.9999995 137.00000,9.1359995 137.00000,18.000000 L 137.00000,171.00000 C 137.00000,179.86400 129.86400,187.00000 121.00000,187.00000 L 18.000000,187.00000 C 9.1360000,187.00000 2.0000000,179.86400 2.0000000,171.00000 L 2.0000000,18.000000 C 2.0000000,9.1359995 9.1360000,1.9999995 18.000000,1.9999995 z" style="fill:#fff;fill-opacity:1;stroke:#000;stroke-width:.7;stroke-miterlimit:4;stroke-dashoffset:0;stroke-opacity:1"/></g></g><path style="font-size:37.418766;font-style:normal;font-variant:normal;font-weight:700;font-stretch:normal;fill:red;fill-opacity:1;stroke:none;stroke-width:1px;stroke-linecap:butt;stroke-linejoin:miter;stroke-opacity:1;font-family:Bitstream Vera Sans;text-anchor:start;writing-mode:lr-tb" id="text1481" d="M 25.078906,36.774534 L 15.077649,36.774534 L 13.499377,42.240029 L 7.0699976,42.240029 L 16.257199,12.240088 L 23.882742,12.240088 L 33.069943,42.240029 L 26.640564,42.240029 L 25.078906,36.774534 M 16.672534,31.208571 L 23.467407,31.208571 L 20.078278,19.272894 L 16.672534,31.208571"/><path style="font-size:37.418766;font-style:normal;font-variant:normal;font-weight:700;font-stretch:normal;fill:red;fill-opacity:1;stroke:none;stroke-width:1px;stroke-linecap:butt;stroke-linejoin:miter;stroke-opacity:1;font-family:Bitstream Vera Sans;text-anchor:start;writing-mode:lr-tb" id="text3802" d="M 113.61105,152.09552 L 123.61231,152.09552 L 125.19057,146.63002 L 131.61996,146.63002 L 122.43276,176.62997 L 114.80721,176.62997 L 105.62001,146.63002 L 112.04939,146.63002 L 113.61105,152.09552 M 122.01742,157.66148 L 115.22255,157.66148 L 118.61168,169.59716 L 122.01742,157.66148"/><path style="fill:red;fill-opacity:1;fill-rule:evenodd;stroke:none;stroke-width:1pt;stroke-linecap:butt;stroke-linejoin:round;stroke-opacity:1" id="path1608" d="M 20.409550,48.665000 C 16.283710,56.910480 13.275310,61.163050 7.0700000,65.704560 C 12.942390,70.191570 17.082700,74.829030 20.530180,82.325000 C 23.609430,75.203780 27.376590,69.895050 33.920000,65.481900 C 27.338020,62.132990 23.527370,56.828250 20.409550,48.665000 z"/><path style="fill:red;fill-opacity:1;fill-rule:evenodd;stroke:none;stroke-width:1pt;stroke-linecap:butt;stroke-linejoin:round;stroke-opacity:1" id="path1518" d="M 118.33956,106.34000 C 114.21371,114.58548 111.20531,118.83805 105.00000,123.37956 C 110.87239,127.86657 115.01271,132.50403 118.46019,140.00000 C 121.53944,132.87878 125.30659,127.57005 131.85000,123.15690 C 125.26803,119.80799 121.45738,114.50325 118.33956,106.34000 z"/><path style="fill:red;fill-opacity:1;fill-rule:evenodd;stroke:none;stroke-width:1pt;stroke-linecap:butt;stroke-linejoin:round;stroke-opacity:1" id="path3794" d="M 69.276497,59.050000 C 60.416314,76.768228 53.955817,85.906327 40.630000,95.665311 C 53.240876,105.30718 62.132133,115.27235 69.535549,131.38000 C 76.148195,116.07763 84.238118,104.67001 98.290000,95.186850 C 84.155290,87.990574 75.971972,76.591529 69.276497,59.050000 z"/><metadata/></svg>