<svg xmlns="http://www.w3.org/2000/svg" xmlns:cc="http://web.resource.org/cc/" xmlns:svg="http://www.w3.org/2000/svg" xmlns:xlink="http://www.w3.org/1999/xlink" id="svg2" height="190" x="0" y="0" preserveAspectRatio="xMinYMin meet" version="1.0" viewBox="0 0 140 190"><defs id="defs3"><linearGradient id="linearGradient2060"><stop style="stop-color:#ebf0d0;stop-opacity:1" id="stop2062" offset="0"/><stop style="stop-color:#ffffeb;stop-opacity:1" id="stop2064" offset="1"/></linearGradient><linearGradient id="linearGradient4853" x1="2" x2="109" y1="63.1" y2="128.695" gradientTransform="translate(0.000000,-1.000000)" gradientUnits="userSpaceOnUse" xlink:href="#linearGradient2060"/></defs><g id="layer1"><g id="g5630"><path id="rect1306" d="M 18.000000,1.9999995 L 121.00000,1.9999995 C 129.86400,1.9999995 137.00000,9.1359995 137.00000,18.000000 L 137.00000,171.00000 C 137.00000,179.86400 129.86400,187.00000 121.00000,187.00000 L 18.000000,187.00000 C 9.1360000,187.00000 2.0000000,179.86400 2.0000000,171.00000 L 2.0000000,18.000000 C 2.0000000,9.1359995 9.1360000,1.9999995 18.000000,1.9999995 z" style="fill:#fff;fill-opacity:1;stroke:#000;stroke-width:.7;stroke-miterlimit:4;stroke-dashoffset:0;stroke-opacity:1"/></g></g><path style="font-size:37.418446;font-style:normal;font-variant:normal;font-weight:700;font-stretch:normal;fill:red;fill-opacity:1;stroke:none;stroke-width:1px;stroke-linecap:butt;stroke-linejoin:miter;stroke-opacity:1;font-family:Bitstream Vera Sans;text-anchor:start;writing-mode:lr-tb" id="text2358" d="M 21.284569,18.607990 L 14.273781,31.166464 L 21.284569,31.166464 L 21.284569,18.607990 M 20.221321,12.238332 L 27.331788,12.238332 L 27.331788,31.166464 L 30.870409,31.166464 L 30.870409,36.772566 L 27.331788,36.772566 L 27.331788,42.238015 L 21.284569,42.238015 L 21.284569,36.772566 L 10.286603,36.772566 L 10.286603,30.141692 L 20.221321,12.238332"/><path style="font-size:37.418446;font-style:normal;font-variant:normal;font-weight:700;font-stretch:normal;fill:red;fill-opacity:1;stroke:none;stroke-width:1px;stroke-linecap:butt;stroke-linejoin:miter;stroke-opacity:1;font-family:Bitstream Vera Sans;text-anchor:start;writing-mode:lr-tb" id="text2242" d="M 117.39543,170.53028 L 124.40622,157.97180 L 117.39543,157.97180 L 117.39543,170.53028 M 118.45868,176.89994 L 111.34821,176.89994 L 111.34821,157.97180 L 107.80958,157.97180 L 107.80958,152.36570 L 111.34821,152.36570 L 111.34821,146.90025 L 117.39543,146.90025 L 117.39543,152.36570 L 128.39339,152.36570 L 128.39339,158.99657 L 118.45868,176.89994"/><path style="fill:red;fill-opacity:1;fill-rule:evenodd;stroke:none;stroke-width:1pt;stroke-linecap:butt;stroke-linejoin:round;stroke-opacity:1" id="path1608" d="M 20.409550,48.665000 C 16.283710,56.910480 13.275310,61.163050 7.0700000,65.704560 C 12.942390,70.191570 17.082700,74.829030 20.530180,82.325000 C 23.609430,75.203780 27.376590,69.895050 33.920000,65.481900 C 27.338020,62.132990 23.527370,56.828250 20.409550,48.665000 z"/><path style="fill:red;fill-opacity:1;fill-rule:evenodd;stroke:none;stroke-width:1pt;stroke-linecap:butt;stroke-linejoin:round;stroke-opacity:1" id="path1498" d="M 51.130230,45.000000 C 48.726940,49.845380 46.974560,52.344370 43.360000,55.013150 C 46.780640,57.649900 49.192350,60.375060 51.200490,64.780000 C 52.994140,60.595280 55.188490,57.475650 59.000000,54.882300 C 55.166030,52.914340 52.946340,49.797060 51.130230,45.000000 z"/><path style="fill:red;fill-opacity:1;fill-rule:evenodd;stroke:none;stroke-width:1pt;stroke-linecap:butt;stroke-linejoin:round;stroke-opacity:1" id="path1500" d="M 87.130230,45.000000 C 84.726950,49.845380 82.974570,52.344370 79.360000,55.013150 C 82.780650,57.649900 85.192360,60.375060 87.200500,64.780000 C 88.994150,60.595280 91.188500,57.475650 95.000000,54.882300 C 91.166030,52.914340 88.946350,49.797060 87.130230,45.000000 z"/><path style="fill:red;fill-opacity:1;fill-rule:evenodd;stroke:none;stroke-width:1pt;stroke-linecap:butt;stroke-linejoin:round;stroke-opacity:1" id="path1512" d="M 53.130230,122.22000 C 50.726940,127.06538 48.974560,129.56437 45.360000,132.23315 C 48.780640,134.86990 51.192350,137.59506 53.200490,142.00000 C 54.994140,137.81528 57.188490,134.69565 61.000000,132.10230 C 57.166030,130.13434 54.946340,127.01706 53.130230,122.22000 z"/><path style="fill:red;fill-opacity:1;fill-rule:evenodd;stroke:none;stroke-width:1pt;stroke-linecap:butt;stroke-linejoin:round;stroke-opacity:1" id="path1516" d="M 88.130230,122.22000 C 85.726950,127.06539 83.974570,129.56437 80.360000,132.23315 C 83.780650,134.86990 86.192360,137.59506 88.200500,142.00000 C 89.994150,137.81528 92.188500,134.69565 96.000000,132.10230 C 92.166030,130.13434 89.946350,127.01707 88.130230,122.22000 z"/><path style="fill:red;fill-opacity:1;fill-rule:evenodd;stroke:none;stroke-width:1pt;stroke-linecap:butt;stroke-linejoin:round;stroke-opacity:1" id="path1518" d="M 118.33956,106.34000 C 114.21371,114.58548 111.20531,118.83805 105.00000,123.37956 C 110.87239,127.86657 115.01271,132.50403 118.46019,140.00000 C 121.53944,132.87878 125.30659,127.57005 131.85000,123.15690 C 125.26803,119.80799 121.45738,114.50325 118.33956,106.34000 z"/><metadata/></svg>