<svg xmlns="http://www.w3.org/2000/svg" xmlns:cc="http://web.resource.org/cc/" xmlns:svg="http://www.w3.org/2000/svg" xmlns:xlink="http://www.w3.org/1999/xlink" id="svg2" height="190" x="0" y="0" preserveAspectRatio="xMinYMin meet" version="1.0" viewBox="0 0 140 190"><defs id="defs3"><linearGradient id="linearGradient2060"><stop style="stop-color:#ebf0d0;stop-opacity:1" id="stop2062" offset="0"/><stop style="stop-color:#ffffeb;stop-opacity:1" id="stop2064" offset="1"/></linearGradient><linearGradient id="linearGradient4853" x1="2" x2="109" y1="63.1" y2="128.695" gradientTransform="translate(0.000000,-1.000000)" gradientUnits="userSpaceOnUse" xlink:href="#linearGradient2060"/></defs><g id="layer1"><g id="g5630"><path id="rect1306" d="M 18.000000,1.9999995 L 121.00000,1.9999995 C 129.86400,1.9999995 137.00000,9.1359995 137.00000,18.000000 L 137.00000,171.00000 C 137.00000,179.86400 129.86400,187.00000 121.00000,187.00000 L 18.000000,187.00000 C 9.1360000,187.00000 2.0000000,179.86400 2.0000000,171.00000 L 2.0000000,18.000000 C 2.0000000,9.1359995 9.1360000,1.9999995 18.000000,1.9999995 z" style="fill:#fff;fill-opacity:1;stroke:#000;stroke-width:.7;stroke-miterlimit:4;stroke-dashoffset:0;stroke-opacity:1"/></g></g><path style="font-size:37.418446;font-style:normal;font-variant:normal;font-weight:700;font-stretch:normal;fill:red;fill-opacity:1;stroke:none;stroke-width:1px;stroke-linecap:butt;stroke-linejoin:miter;stroke-opacity:1;font-family:Bitstream Vera Sans;text-anchor:start;writing-mode:lr-tb" id="text2850" d="M 11.274673,11.998181 L 29.964573,11.998181 L 29.964573,16.358486 L 20.295669,41.997861 L 14.065696,41.997861 L 23.219592,17.684652 L 11.274673,17.684652 L 11.274673,11.998181"/><path style="font-size:37.418446;font-style:normal;font-variant:normal;font-weight:700;font-stretch:normal;fill:red;fill-opacity:1;stroke:none;stroke-width:1px;stroke-linecap:butt;stroke-linejoin:miter;stroke-opacity:1;font-family:Bitstream Vera Sans;text-anchor:start;writing-mode:lr-tb" id="text3250" d="M 127.49552,177.00000 L 108.80561,177.00000 L 108.80561,172.63969 L 118.47452,147.00031 L 124.70449,147.00031 L 115.55060,171.31352 L 127.49552,171.31352 L 127.49552,177.00000"/><path style="fill:red;fill-opacity:1;fill-rule:evenodd;stroke:none;stroke-width:1pt;stroke-linecap:butt;stroke-linejoin:round;stroke-opacity:1" id="path1608" d="M 20.409550,48.665000 C 16.283710,56.910480 13.275310,61.163050 7.0700000,65.704560 C 12.942390,70.191570 17.082700,74.829030 20.530180,82.325000 C 23.609430,75.203780 27.376590,69.895050 33.920000,65.481900 C 27.338020,62.132990 23.527370,56.828250 20.409550,48.665000 z"/><path style="fill:red;fill-opacity:1;fill-rule:evenodd;stroke:none;stroke-width:1pt;stroke-linecap:butt;stroke-linejoin:round;stroke-opacity:1" id="path1498" d="M 51.130230,45.000000 C 48.726940,49.845380 46.974560,52.344370 43.360000,55.013150 C 46.780640,57.649900 49.192350,60.375060 51.200490,64.780000 C 52.994140,60.595280 55.188490,57.475650 59.000000,54.882300 C 55.166030,52.914340 52.946340,49.797060 51.130230,45.000000 z"/><path style="fill:red;fill-opacity:1;fill-rule:evenodd;stroke:none;stroke-width:1pt;stroke-linecap:butt;stroke-linejoin:round;stroke-opacity:1" id="path1500" d="M 87.770230,45.220000 C 85.366950,50.065380 83.614570,52.564370 80.000000,55.233150 C 83.420650,57.869900 85.832360,60.595060 87.840500,65.000000 C 89.634150,60.815280 91.828500,57.695650 95.640000,55.102300 C 91.806030,53.134340 89.586350,50.017060 87.770230,45.220000 z"/><path style="fill:red;fill-opacity:1;fill-rule:evenodd;stroke:none;stroke-width:1pt;stroke-linecap:butt;stroke-linejoin:round;stroke-opacity:1" id="path1502" d="M 70.130230,60.220000 C 67.726940,65.065380 65.974560,67.564370 62.360000,70.233150 C 65.780640,72.869900 68.192350,75.595060 70.200490,80.000000 C 71.994140,75.815280 74.188500,72.695650 78.000000,70.102300 C 74.166030,68.134340 71.946340,65.017060 70.130230,60.220000 z"/><path style="fill:red;fill-opacity:1;fill-rule:evenodd;stroke:none;stroke-width:1pt;stroke-linecap:butt;stroke-linejoin:round;stroke-opacity:1" id="path1508" d="M 70.130220,83.220000 C 67.726940,88.065390 65.974560,90.564370 62.360000,93.233150 C 65.780640,95.869900 68.192350,98.595060 70.200490,103.00000 C 71.994140,98.815280 74.188490,95.695650 78.000000,93.102300 C 74.166020,91.134340 71.946340,88.017070 70.130220,83.220000 z"/><path style="fill:red;fill-opacity:1;fill-rule:evenodd;stroke:none;stroke-width:1pt;stroke-linecap:butt;stroke-linejoin:round;stroke-opacity:1" id="path1512" d="M 52.770230,122.22000 C 50.366940,127.06538 48.614560,129.56437 45.000000,132.23315 C 48.420640,134.86990 50.832350,137.59506 52.840490,142.00000 C 54.634140,137.81528 56.828490,134.69565 60.640000,132.10230 C 56.806030,130.13434 54.586340,127.01706 52.770230,122.22000 z"/><path style="fill:red;fill-opacity:1;fill-rule:evenodd;stroke:none;stroke-width:1pt;stroke-linecap:butt;stroke-linejoin:round;stroke-opacity:1" id="path1514" d="M 70.130230,107.22000 C 67.726940,112.06539 65.974560,114.56437 62.360000,117.23315 C 65.780640,119.86990 68.192350,122.59506 70.200500,127.00000 C 71.994140,122.81528 74.188500,119.69565 78.000000,117.10230 C 74.166030,115.13434 71.946340,112.01706 70.130230,107.22000 z"/><path style="fill:red;fill-opacity:1;fill-rule:evenodd;stroke:none;stroke-width:1pt;stroke-linecap:butt;stroke-linejoin:round;stroke-opacity:1" id="path1516" d="M 88.130230,122.22000 C 85.726950,127.06539 83.974570,129.56437 80.360000,132.23315 C 83.780650,134.86990 86.192360,137.59506 88.200500,142.00000 C 89.994150,137.81528 92.188500,134.69565 96.000000,132.10230 C 92.166030,130.13434 89.946350,127.01707 88.130230,122.22000 z"/><path style="fill:red;fill-opacity:1;fill-rule:evenodd;stroke:none;stroke-width:1pt;stroke-linecap:butt;stroke-linejoin:round;stroke-opacity:1" id="path1518" d="M 118.33956,106.34000 C 114.21371,114.58548 111.20531,118.83805 105.00000,123.37956 C 110.87239,127.86657 115.01271,132.50403 118.46019,140.00000 C 121.53944,132.87878 125.30659,127.57005 131.85000,123.15690 C 125.26803,119.80799 121.45738,114.50325 118.33956,106.34000 z"/><metadata/></svg>