<svg xmlns="http://www.w3.org/2000/svg" xmlns:cc="http://web.resource.org/cc/" xmlns:svg="http://www.w3.org/2000/svg" xmlns:xlink="http://www.w3.org/1999/xlink" id="svg2" height="190" x="0" y="0" preserveAspectRatio="xMinYMin meet" version="1.0" viewBox="0 0 140 190"><defs id="defs3"><linearGradient id="linearGradient2060"><stop style="stop-color:#ebf0d0;stop-opacity:1" id="stop2062" offset="0"/><stop style="stop-color:#ffffeb;stop-opacity:1" id="stop2064" offset="1"/></linearGradient><linearGradient id="linearGradient4853" x1="2" x2="109" y1="63.1" y2="128.695" gradientTransform="translate(0.000000,-1.000000)" gradientUnits="userSpaceOnUse" xlink:href="#linearGradient2060"/></defs><g id="layer1"><g id="g5630"><path id="rect1306" d="M 18.000000,1.9999995 L 121.00000,1.9999995 C 129.86400,1.9999995 137.00000,9.1359995 137.00000,18.000000 L 137.00000,171.00000 C 137.00000,179.86400 129.86400,187.00000 121.00000,187.00000 L 18.000000,187.00000 C 9.1360000,187.00000 2.0000000,179.86400 2.0000000,171.00000 L 2.0000000,18.000000 C 2.0000000,9.1359995 9.1360000,1.9999995 18.000000,1.9999995 z" style="fill:#fff;fill-opacity:1;stroke:#000;stroke-width:.7;stroke-miterlimit:4;stroke-dashoffset:0;stroke-opacity:1"/></g></g><path style="font-size:37.418461;font-style:normal;font-variant:normal;font-weight:700;font-stretch:normal;fill:red;fill-opacity:1;stroke:none;stroke-width:1px;stroke-linecap:butt;stroke-linejoin:miter;stroke-opacity:1;font-family:Bitstream Vera Sans;text-anchor:start;writing-mode:lr-tb" id="text1386" d="M 18.800361,36.311322 L 29.715265,36.311322 L 29.715265,41.997802 L 11.689890,41.997802 L 11.689890,36.311322 L 20.744111,26.646316 C 21.552609,25.762215 22.150686,24.898193 22.538342,24.054246 C 22.925970,23.210335 23.119791,22.332917 23.119805,21.421988 C 23.119791,20.015461 22.726612,18.883525 21.940265,18.026176 C 21.164968,17.168875 20.129409,16.740213 18.833587,16.740188 C 17.836784,16.740213 16.745848,17.001429 15.560777,17.523836 C 14.375694,18.032898 13.107550,18.796453 11.756343,19.814504 L 11.756343,13.223813 C 13.196154,12.647827 14.619354,12.212467 16.025948,11.917732 C 17.432528,11.609660 18.811427,11.455610 20.162647,11.455579 C 23.130867,11.455610 25.434568,12.245956 27.073759,13.826620 C 28.723988,15.407341 29.549112,17.610934 29.549133,20.437404 C 29.549112,22.071700 29.200234,23.598811 28.502498,25.018738 C 27.804722,26.425302 26.337220,28.314096 24.099987,30.685123 L 18.800361,36.311322"/><g style="fill:red;fill-opacity:1" id="g1390" transform="matrix(0.286388,0.000000,0.000000,0.388772,-29.60833,-9.472414)"><path style="fill-rule:evenodd;stroke:none;stroke-width:3.4289415;stroke-linecap:butt;stroke-linejoin:round;stroke-miterlimit:4;stroke-opacity:1" id="path1392" d="M 147.20601,156.41679 C 144.67035,156.42954 141.88421,156.89888 138.79976,157.94804 C 105.17650,177.48492 150.50459,208.98936 169.64351,236.04179 L 170.19602,236.18010 C 191.22900,206.61098 231.26801,174.07246 200.67476,157.94804 C 176.43799,149.70401 169.96344,177.14611 169.73726,178.13554 C 169.53987,177.27202 164.59485,156.32936 147.20601,156.41679 z" transform="matrix(1.105375,0.000000,0.000000,1.079637,-12.01415,-18.86731)"/></g><path style="font-size:37.418461;font-style:normal;font-variant:normal;font-weight:700;font-stretch:normal;fill:red;fill-opacity:1;stroke:none;stroke-width:1px;stroke-linecap:butt;stroke-linejoin:miter;stroke-opacity:1;font-family:Bitstream Vera Sans;text-anchor:start;writing-mode:lr-tb" id="text12521" d="M 120.06510,152.68861 L 109.15018,152.68861 L 109.15018,147.00213 L 127.17556,147.00213 L 127.17556,152.68861 L 118.12134,162.35361 C 117.31284,163.23772 116.71476,164.10174 116.32711,164.94568 C 115.93948,165.78960 115.74566,166.66701 115.74564,167.57794 C 115.74566,168.98447 116.13884,170.11640 116.92519,170.97375 C 117.70048,171.83105 118.73604,172.25972 120.03186,172.25974 C 121.02867,172.25972 122.11960,171.99850 123.30468,171.47609 C 124.48976,170.96703 125.75790,170.20347 127.10911,169.18543 L 127.10911,175.77612 C 125.66930,176.35210 124.24610,176.78746 122.83951,177.08220 C 121.43293,177.39027 120.05403,177.54431 118.70281,177.54435 C 115.73459,177.54431 113.43088,176.75398 111.79169,175.17331 C 110.14147,173.59258 109.31634,171.38900 109.31632,168.56252 C 109.31634,166.92823 109.66522,165.40112 110.36296,163.98119 C 111.06073,162.57462 112.52823,160.68584 114.76546,158.31480 L 120.06510,152.68861"/><g style="fill:red;fill-opacity:1" id="g12525" transform="matrix(-0.286388,0.000000,0.000000,-0.388772,168.4700,198.3135)"><path style="fill-rule:evenodd;stroke:none;stroke-width:3.4289415;stroke-linecap:butt;stroke-linejoin:round;stroke-miterlimit:4;stroke-opacity:1" id="path12527" d="M 147.20601,156.41679 C 144.67035,156.42954 141.88421,156.89888 138.79976,157.94804 C 105.17650,177.48492 150.50459,208.98936 169.64351,236.04179 L 170.19602,236.18010 C 191.22900,206.61098 231.26801,174.07246 200.67476,157.94804 C 176.43799,149.70401 169.96344,177.14611 169.73726,178.13554 C 169.53987,177.27202 164.59485,156.32936 147.20601,156.41679 z" transform="matrix(1.105375,0.000000,0.000000,1.079637,-12.01415,-18.86731)"/></g><g id="g1989"><g id="g2352" transform="translate(333.5000,184.5000)"><g style="fill:red;fill-opacity:1" id="g2020" transform="matrix(0.166355,0.000000,0.000000,0.229660,-293.8061,-168.7277)"><path style="fill-rule:evenodd;stroke:none;stroke-width:3.4289415;stroke-linecap:butt;stroke-linejoin:round;stroke-miterlimit:4;stroke-opacity:1" id="path2022" d="M 147.20601,156.41679 C 144.67035,156.42954 141.88421,156.89888 138.79976,157.94804 C 105.17650,177.48492 150.50459,208.98936 169.64351,236.04179 L 170.19602,236.18010 C 191.22900,206.61098 231.26801,174.07246 200.67476,157.94804 C 176.43799,149.70401 169.96344,177.14611 169.73726,178.13554 C 169.53987,177.27202 164.59485,156.32936 147.20601,156.41679 z" transform="matrix(1.105375,0.000000,0.000000,1.079637,-12.01415,-18.86731)"/></g></g></g><g style="fill-opacity:1;fill:red" id="g1861" transform="matrix(-0.166355,0.000000,0.000000,-0.229660,98.30610,170.4476)"><path style="fill-rule:evenodd;stroke:none;stroke-width:3.4289415;stroke-linecap:butt;stroke-linejoin:round;stroke-miterlimit:4;stroke-opacity:1" id="path1863" d="M 147.20601,156.41679 C 144.67035,156.42954 141.88421,156.89888 138.79976,157.94804 C 105.17650,177.48492 150.50459,208.98936 169.64351,236.04179 L 170.19602,236.18010 C 191.22900,206.61098 231.26801,174.07246 200.67476,157.94804 C 176.43799,149.70401 169.96344,177.14611 169.73726,178.13554 C 169.53987,177.27202 164.59485,156.32936 147.20601,156.41679 z" transform="matrix(1.105375,0.000000,0.000000,1.079637,-12.01415,-18.86731)"/></g><metadata/></svg>