<svg xmlns="http://www.w3.org/2000/svg" xmlns:cc="http://web.resource.org/cc/" xmlns:svg="http://www.w3.org/2000/svg" xmlns:xlink="http://www.w3.org/1999/xlink" id="svg2" height="190" x="0" y="0" preserveAspectRatio="xMinYMin meet" version="1.0" viewBox="0 0 140 190"><defs id="defs3"><linearGradient id="linearGradient2060"><stop style="stop-color:#ebf0d0;stop-opacity:1" id="stop2062" offset="0"/><stop style="stop-color:#ffffeb;stop-opacity:1" id="stop2064" offset="1"/></linearGradient><linearGradient id="linearGradient4853" x1="2" x2="109" y1="63.1" y2="128.695" gradientTransform="translate(0.000000,-1.000000)" gradientUnits="userSpaceOnUse" xlink:href="#linearGradient2060"/></defs><g id="layer1"><g id="g5630"><path id="rect1306" d="M 18.000000,1.9999995 L 121.00000,1.9999995 C 129.86400,1.9999995 137.00000,9.1359995 137.00000,18.000000 L 137.00000,171.00000 C 137.00000,179.86400 129.86400,187.00000 121.00000,187.00000 L 18.000000,187.00000 C 9.1360000,187.00000 2.0000000,179.86400 2.0000000,171.00000 L 2.0000000,18.000000 C 2.0000000,9.1359995 9.1360000,1.9999995 18.000000,1.9999995 z" style="fill:#fff;fill-opacity:1;stroke:#000;stroke-width:.7;stroke-miterlimit:4;stroke-dashoffset:0;stroke-opacity:1"/></g></g><path style="font-size:37.418461;font-style:normal;font-variant:normal;font-weight:700;font-stretch:normal;fill:red;fill-opacity:1;stroke:none;stroke-width:1px;stroke-linecap:butt;stroke-linejoin:miter;stroke-opacity:1;font-family:Bitstream Vera Sans;text-anchor:start;writing-mode:lr-tb" id="text1386" d="M 21.524934,18.367766 L 14.514143,30.926246 L 21.524934,30.926246 L 21.524934,18.367766 M 20.461686,11.998106 L 27.572156,11.998106 L 27.572156,30.926246 L 31.110778,30.926246 L 31.110778,36.532352 L 27.572156,36.532352 L 27.572156,41.997802 L 21.524934,41.997802 L 21.524934,36.532352 L 10.526963,36.532352 L 10.526963,29.901474 L 20.461686,11.998106"/><g style="fill:red;fill-opacity:1" id="g1390" transform="matrix(0.286388,0.000000,0.000000,0.388772,-29.60833,-9.472414)"><path style="fill-rule:evenodd;stroke:none;stroke-width:3.4289415;stroke-linecap:butt;stroke-linejoin:round;stroke-miterlimit:4;stroke-opacity:1" id="path1392" d="M 147.20601,156.41679 C 144.67035,156.42954 141.88421,156.89888 138.79976,157.94804 C 105.17650,177.48492 150.50459,208.98936 169.64351,236.04179 L 170.19602,236.18010 C 191.22900,206.61098 231.26801,174.07246 200.67476,157.94804 C 176.43799,149.70401 169.96344,177.14611 169.73726,178.13554 C 169.53987,177.27202 164.59485,156.32936 147.20601,156.41679 z" transform="matrix(1.105375,0.000000,0.000000,1.079637,-12.01415,-18.86731)"/></g><path style="font-size:37.418461;font-style:normal;font-variant:normal;font-weight:700;font-stretch:normal;fill:red;fill-opacity:1;stroke:none;stroke-width:1px;stroke-linecap:butt;stroke-linejoin:miter;stroke-opacity:1;font-family:Bitstream Vera Sans;text-anchor:start;writing-mode:lr-tb" id="text13201" d="M 117.34052,170.63216 L 124.35131,158.07368 L 117.34052,158.07368 L 117.34052,170.63216 M 118.40377,177.00182 L 111.29330,177.00182 L 111.29330,158.07368 L 107.75467,158.07368 L 107.75467,152.46758 L 111.29330,152.46758 L 111.29330,147.00213 L 117.34052,147.00213 L 117.34052,152.46758 L 128.33849,152.46758 L 128.33849,159.09845 L 118.40377,177.00182"/><g style="fill:red;fill-opacity:1" id="g13205" transform="matrix(-0.286388,0.000000,0.000000,-0.388772,168.4700,198.3135)"><path style="fill-rule:evenodd;stroke:none;stroke-width:3.4289415;stroke-linecap:butt;stroke-linejoin:round;stroke-miterlimit:4;stroke-opacity:1" id="path13207" d="M 147.20601,156.41679 C 144.67035,156.42954 141.88421,156.89888 138.79976,157.94804 C 105.17650,177.48492 150.50459,208.98936 169.64351,236.04179 L 170.19602,236.18010 C 191.22900,206.61098 231.26801,174.07246 200.67476,157.94804 C 176.43799,149.70401 169.96344,177.14611 169.73726,178.13554 C 169.53987,177.27202 164.59485,156.32936 147.20601,156.41679 z" transform="matrix(1.105375,0.000000,0.000000,1.079637,-12.01415,-18.86731)"/></g><g style="fill-opacity:1;fill:red" id="g1861" transform="matrix(0.166355,0.000000,0.000000,0.229660,22.05389,10.77234)"><path style="fill-rule:evenodd;stroke:none;stroke-width:3.4289415;stroke-linecap:butt;stroke-linejoin:round;stroke-miterlimit:4;stroke-opacity:1" id="path1863" d="M 147.20601,156.41679 C 144.67035,156.42954 141.88421,156.89888 138.79976,157.94804 C 105.17650,177.48492 150.50459,208.98936 169.64351,236.04179 L 170.19602,236.18010 C 191.22900,206.61098 231.26801,174.07246 200.67476,157.94804 C 176.43799,149.70401 169.96344,177.14611 169.73726,178.13554 C 169.53987,177.27202 164.59485,156.32936 147.20601,156.41679 z" transform="matrix(1.105375,0.000000,0.000000,1.079637,-12.01415,-18.86731)"/></g><g style="fill-opacity:1;fill:red" id="g3081" transform="matrix(0.166355,0.000000,0.000000,0.229660,58.05389,10.77234)"><path style="fill-rule:evenodd;stroke:none;stroke-width:3.4289415;stroke-linecap:butt;stroke-linejoin:round;stroke-miterlimit:4;stroke-opacity:1" id="path3083" d="M 147.20601,156.41679 C 144.67035,156.42954 141.88421,156.89888 138.79976,157.94804 C 105.17650,177.48492 150.50459,208.98936 169.64351,236.04179 L 170.19602,236.18010 C 191.22900,206.61098 231.26801,174.07246 200.67476,157.94804 C 176.43799,149.70401 169.96344,177.14611 169.73726,178.13554 C 169.53987,177.27202 164.59485,156.32936 147.20601,156.41679 z" transform="matrix(1.105375,0.000000,0.000000,1.079637,-12.01415,-18.86731)"/></g><g style="fill-opacity:1;fill:red" id="g3085" transform="matrix(-0.166355,0.000000,0.000000,-0.229660,82.30610,176.4476)"><path style="fill-rule:evenodd;stroke:none;stroke-width:3.4289415;stroke-linecap:butt;stroke-linejoin:round;stroke-miterlimit:4;stroke-opacity:1" id="path3087" d="M 147.20601,156.41679 C 144.67035,156.42954 141.88421,156.89888 138.79976,157.94804 C 105.17650,177.48492 150.50459,208.98936 169.64351,236.04179 L 170.19602,236.18010 C 191.22900,206.61098 231.26801,174.07246 200.67476,157.94804 C 176.43799,149.70401 169.96344,177.14611 169.73726,178.13554 C 169.53987,177.27202 164.59485,156.32936 147.20601,156.41679 z" transform="matrix(1.105375,0.000000,0.000000,1.079637,-12.01415,-18.86731)"/></g><g style="fill-opacity:1;fill:red" id="g3089" transform="matrix(-0.166355,0.000000,0.000000,-0.229660,117.3061,176.2277)"><path style="fill-rule:evenodd;stroke:none;stroke-width:3.4289415;stroke-linecap:butt;stroke-linejoin:round;stroke-miterlimit:4;stroke-opacity:1" id="path3091" d="M 147.20601,156.41679 C 144.67035,156.42954 141.88421,156.89888 138.79976,157.94804 C 105.17650,177.48492 150.50459,208.98936 169.64351,236.04179 L 170.19602,236.18010 C 191.22900,206.61098 231.26801,174.07246 200.67476,157.94804 C 176.43799,149.70401 169.96344,177.14611 169.73726,178.13554 C 169.53987,177.27202 164.59485,156.32936 147.20601,156.41679 z" transform="matrix(1.105375,0.000000,0.000000,1.079637,-12.01415,-18.86731)"/></g><metadata/></svg>