<svg xmlns="http://www.w3.org/2000/svg" xmlns:cc="http://web.resource.org/cc/" xmlns:svg="http://www.w3.org/2000/svg" xmlns:xlink="http://www.w3.org/1999/xlink" id="svg2" height="190" x="0" y="0" preserveAspectRatio="xMinYMin meet" version="1.0" viewBox="0 0 140 190"><defs id="defs3"><linearGradient id="linearGradient3920"><stop style="stop-color:#fff;stop-opacity:1" id="stop3922" offset="0"/><stop style="stop-color:#fff;stop-opacity:0" id="stop3924" offset="1"/></linearGradient><linearGradient id="linearGradient2060"><stop style="stop-color:#ebf0d0;stop-opacity:1" id="stop2062" offset="0"/><stop style="stop-color:#ffffeb;stop-opacity:1" id="stop2064" offset="1"/></linearGradient><linearGradient id="linearGradient1575"><stop style="stop-color:#fff;stop-opacity:.5" id="stop1576" offset="0"/><stop style="stop-color:#fff;stop-opacity:0" id="stop1577" offset="1"/></linearGradient><linearGradient id="linearGradient4853" x1="2" x2="109" y1="63.1" y2="128.695" gradientTransform="translate(0.000000,-1.000000)" gradientUnits="userSpaceOnUse" xlink:href="#linearGradient2060"/><linearGradient id="linearGradient3926" x1="233.887" x2="159.435" y1="142.784" y2="209.561" gradientUnits="userSpaceOnUse" xlink:href="#linearGradient3920"/><linearGradient id="linearGradient1368" x1="233.887" x2="159.435" y1="142.784" y2="209.561" gradientUnits="userSpaceOnUse" xlink:href="#linearGradient3920"/><linearGradient id="linearGradient1366" x1="2" x2="109" y1="63.1" y2="128.695" gradientTransform="translate(0.000000,-1.000000)" gradientUnits="userSpaceOnUse" xlink:href="#linearGradient2060"/><linearGradient id="linearGradient1360"><stop style="stop-color:#fff;stop-opacity:.5" id="stop1362" offset="0"/><stop style="stop-color:#fff;stop-opacity:0" id="stop1364" offset="1"/></linearGradient><linearGradient id="linearGradient1354"><stop style="stop-color:#ebf0d0;stop-opacity:1" id="stop1356" offset="0"/><stop style="stop-color:#ffffeb;stop-opacity:1" id="stop1358" offset="1"/></linearGradient><linearGradient id="linearGradient1398" x1="2" x2="109" y1="63.1" y2="128.695" gradientTransform="translate(0.000000,-1.000000)" gradientUnits="userSpaceOnUse" xlink:href="#linearGradient2060"/><linearGradient id="linearGradient4591" x1="2" x2="109" y1="63.1" y2="128.695" gradientTransform="translate(0.000000,-1.000000)" gradientUnits="userSpaceOnUse" xlink:href="#linearGradient2060"/><linearGradient id="linearGradient4523"><stop style="stop-color:#ebf0d0;stop-opacity:1" id="stop4525" offset="0"/><stop style="stop-color:#ffffeb;stop-opacity:1" id="stop4527" offset="1"/></linearGradient><linearGradient id="linearGradient4529"><stop style="stop-color:#fff;stop-opacity:.5" id="stop4531" offset="0"/><stop style="stop-color:#fff;stop-opacity:0" id="stop4533" offset="1"/></linearGradient><linearGradient id="linearGradient4535" x1="2" x2="109" y1="63.1" y2="128.695" gradientTransform="translate(0.000000,-1.000000)" gradientUnits="userSpaceOnUse" xlink:href="#linearGradient2060"/><linearGradient id="linearGradient4537" x1="233.887" x2="159.435" y1="142.784" y2="209.561" gradientUnits="userSpaceOnUse" xlink:href="#linearGradient3920"/><linearGradient id="linearGradient4539" x1="233.887" x2="159.435" y1="142.784" y2="209.561" gradientUnits="userSpaceOnUse" xlink:href="#linearGradient3920"/><linearGradient id="linearGradient4541" x1="2" x2="109" y1="63.1" y2="128.695" gradientTransform="translate(0.000000,-1.000000)" gradientUnits="userSpaceOnUse" xlink:href="#linearGradient2060"/><linearGradient id="linearGradient4543"><stop style="stop-color:#fff;stop-opacity:.5" id="stop4545" offset="0"/><stop style="stop-color:#fff;stop-opacity:0" id="stop4547" offset="1"/></linearGradient><linearGradient id="linearGradient4549"><stop style="stop-color:#ebf0d0;stop-opacity:1" id="stop4551" offset="0"/><stop style="stop-color:#ffffeb;stop-opacity:1" id="stop4553" offset="1"/></linearGradient><linearGradient id="linearGradient4555" x1="2" x2="109" y1="63.1" y2="128.695" gradientTransform="translate(0.000000,-1.000000)" gradientUnits="userSpaceOnUse" xlink:href="#linearGradient2060"/><linearGradient id="linearGradient3955" x1="2" x2="109" y1="63.1" y2="128.695" gradientTransform="translate(0.000000,-1.000000)" gradientUnits="userSpaceOnUse" xlink:href="#linearGradient2060"/><linearGradient id="linearGradient3891"><stop style="stop-color:#ebf0d0;stop-opacity:1" id="stop3893" offset="0"/><stop style="stop-color:#ffffeb;stop-opacity:1" id="stop3895" offset="1"/></linearGradient><linearGradient id="linearGradient3897"><stop style="stop-color:#fff;stop-opacity:.5" id="stop3899" offset="0"/><stop style="stop-color:#fff;stop-opacity:0" id="stop3901" offset="1"/></linearGradient><linearGradient id="linearGradient3903" x1="2" x2="109" y1="63.1" y2="128.695" gradientTransform="translate(0.000000,-1.000000)" gradientUnits="userSpaceOnUse" xlink:href="#linearGradient2060"/><linearGradient id="linearGradient3905" x1="233.887" x2="159.435" y1="142.784" y2="209.561" gradientUnits="userSpaceOnUse" xlink:href="#linearGradient3920"/><linearGradient id="linearGradient3907" x1="233.887" x2="159.435" y1="142.784" y2="209.561" gradientUnits="userSpaceOnUse" xlink:href="#linearGradient3920"/><linearGradient id="linearGradient3909" x1="2" x2="109" y1="63.1" y2="128.695" gradientTransform="translate(0.000000,-1.000000)" gradientUnits="userSpaceOnUse" xlink:href="#linearGradient2060"/><linearGradient id="linearGradient3911"><stop style="stop-color:#fff;stop-opacity:.5" id="stop3913" offset="0"/><stop style="stop-color:#fff;stop-opacity:0" id="stop3915" offset="1"/></linearGradient><linearGradient id="linearGradient3917"><stop style="stop-color:#ebf0d0;stop-opacity:1" id="stop3919" offset="0"/><stop style="stop-color:#ffffeb;stop-opacity:1" id="stop3921" offset="1"/></linearGradient><linearGradient id="linearGradient3923" x1="2" x2="109" y1="63.1" y2="128.695" gradientTransform="translate(0.000000,-1.000000)" gradientUnits="userSpaceOnUse" xlink:href="#linearGradient2060"/><linearGradient id="linearGradient3454" x1="2" x2="109" y1="63.1" y2="128.695" gradientTransform="translate(0.000000,-1.000000)" gradientUnits="userSpaceOnUse" xlink:href="#linearGradient2060"/><linearGradient id="linearGradient3390"><stop style="stop-color:#ebf0d0;stop-opacity:1" id="stop3392" offset="0"/><stop style="stop-color:#ffffeb;stop-opacity:1" id="stop3394" offset="1"/></linearGradient><linearGradient id="linearGradient3396"><stop style="stop-color:#fff;stop-opacity:.5" id="stop3398" offset="0"/><stop style="stop-color:#fff;stop-opacity:0" id="stop3400" offset="1"/></linearGradient><linearGradient id="linearGradient3402" x1="2" x2="109" y1="63.1" y2="128.695" gradientTransform="translate(0.000000,-1.000000)" gradientUnits="userSpaceOnUse" xlink:href="#linearGradient2060"/><linearGradient id="linearGradient3404" x1="233.887" x2="159.435" y1="142.784" y2="209.561" gradientUnits="userSpaceOnUse" xlink:href="#linearGradient3920"/><linearGradient id="linearGradient3406" x1="233.887" x2="159.435" y1="142.784" y2="209.561" gradientUnits="userSpaceOnUse" xlink:href="#linearGradient3920"/><linearGradient id="linearGradient3408" x1="2" x2="109" y1="63.1" y2="128.695" gradientTransform="translate(0.000000,-1.000000)" gradientUnits="userSpaceOnUse" xlink:href="#linearGradient2060"/><linearGradient id="linearGradient3410"><stop style="stop-color:#fff;stop-opacity:.5" id="stop3412" offset="0"/><stop style="stop-color:#fff;stop-opacity:0" id="stop3414" offset="1"/></linearGradient><linearGradient id="linearGradient3416"><stop style="stop-color:#ebf0d0;stop-opacity:1" id="stop3418" offset="0"/><stop style="stop-color:#ffffeb;stop-opacity:1" id="stop3420" offset="1"/></linearGradient><linearGradient id="linearGradient3422" x1="2" x2="109" y1="63.1" y2="128.695" gradientTransform="translate(0.000000,-1.000000)" gradientUnits="userSpaceOnUse" xlink:href="#linearGradient2060"/><linearGradient id="linearGradient2595" x1="2" x2="109" y1="63.1" y2="128.695" gradientTransform="translate(0.000000,-1.000000)" gradientUnits="userSpaceOnUse" xlink:href="#linearGradient2060"/><linearGradient id="linearGradient2535"><stop style="stop-color:#ebf0d0;stop-opacity:1" id="stop2537" offset="0"/><stop style="stop-color:#ffffeb;stop-opacity:1" id="stop2539" offset="1"/></linearGradient><linearGradient id="linearGradient2541"><stop style="stop-color:#fff;stop-opacity:.5" id="stop2543" offset="0"/><stop style="stop-color:#fff;stop-opacity:0" id="stop2545" offset="1"/></linearGradient><linearGradient id="linearGradient2547" x1="2" x2="109" y1="63.1" y2="128.695" gradientTransform="translate(0.000000,-1.000000)" gradientUnits="userSpaceOnUse" xlink:href="#linearGradient2060"/><linearGradient id="linearGradient2549" x1="233.887" x2="159.435" y1="142.784" y2="209.561" gradientUnits="userSpaceOnUse" xlink:href="#linearGradient3920"/><linearGradient id="linearGradient2551" x1="233.887" x2="159.435" y1="142.784" y2="209.561" gradientUnits="userSpaceOnUse" xlink:href="#linearGradient3920"/><linearGradient id="linearGradient2553" x1="2" x2="109" y1="63.1" y2="128.695" gradientTransform="translate(0.000000,-1.000000)" gradientUnits="userSpaceOnUse" xlink:href="#linearGradient2060"/><linearGradient id="linearGradient2555"><stop style="stop-color:#fff;stop-opacity:.5" id="stop2557" offset="0"/><stop style="stop-color:#fff;stop-opacity:0" id="stop2559" offset="1"/></linearGradient><linearGradient id="linearGradient2561"><stop style="stop-color:#ebf0d0;stop-opacity:1" id="stop2563" offset="0"/><stop style="stop-color:#ffffeb;stop-opacity:1" id="stop2565" offset="1"/></linearGradient><linearGradient id="linearGradient2567" x1="2" x2="109" y1="63.1" y2="128.695" gradientTransform="translate(0.000000,-1.000000)" gradientUnits="userSpaceOnUse" xlink:href="#linearGradient2060"/><linearGradient id="linearGradient2318"><stop style="stop-color:#ebf0d0;stop-opacity:1" id="stop2320" offset="0"/><stop style="stop-color:#ffffeb;stop-opacity:1" id="stop2322" offset="1"/></linearGradient><linearGradient id="linearGradient2324"><stop style="stop-color:#fff;stop-opacity:.5" id="stop2326" offset="0"/><stop style="stop-color:#fff;stop-opacity:0" id="stop2328" offset="1"/></linearGradient><linearGradient id="linearGradient2330" x1="2" x2="109" y1="63.1" y2="128.695" gradientTransform="translate(0.000000,-1.000000)" gradientUnits="userSpaceOnUse" xlink:href="#linearGradient2060"/><linearGradient id="linearGradient2332" x1="233.887" x2="159.435" y1="142.784" y2="209.561" gradientUnits="userSpaceOnUse" xlink:href="#linearGradient3920"/><linearGradient id="linearGradient2334" x1="233.887" x2="159.435" y1="142.784" y2="209.561" gradientUnits="userSpaceOnUse" xlink:href="#linearGradient3920"/><linearGradient id="linearGradient2336" x1="2" x2="109" y1="63.1" y2="128.695" gradientTransform="translate(0.000000,-1.000000)" gradientUnits="userSpaceOnUse" xlink:href="#linearGradient2060"/><linearGradient id="linearGradient2338"><stop style="stop-color:#fff;stop-opacity:.5" id="stop2340" offset="0"/><stop style="stop-color:#fff;stop-opacity:0" id="stop2342" offset="1"/></linearGradient><linearGradient id="linearGradient2344"><stop style="stop-color:#ebf0d0;stop-opacity:1" id="stop2346" offset="0"/><stop style="stop-color:#ffffeb;stop-opacity:1" id="stop2348" offset="1"/></linearGradient><linearGradient id="linearGradient2350" x1="2" x2="109" y1="63.1" y2="128.695" gradientTransform="translate(0.000000,-1.000000)" gradientUnits="userSpaceOnUse" xlink:href="#linearGradient2060"/><linearGradient id="linearGradient4060" x1="2" x2="109" y1="63.1" y2="128.695" gradientTransform="translate(0.000000,-1.000000)" gradientUnits="userSpaceOnUse" xlink:href="#linearGradient2060"/><linearGradient id="linearGradient4054"><stop style="stop-color:#ebf0d0;stop-opacity:1" id="stop4056" offset="0"/><stop style="stop-color:#ffffeb;stop-opacity:1" id="stop4058" offset="1"/></linearGradient><linearGradient id="linearGradient4048"><stop style="stop-color:#fff;stop-opacity:.5" id="stop4050" offset="0"/><stop style="stop-color:#fff;stop-opacity:0" id="stop4052" offset="1"/></linearGradient><linearGradient id="linearGradient4046" x1="2" x2="109" y1="63.1" y2="128.695" gradientTransform="translate(0.000000,-1.000000)" gradientUnits="userSpaceOnUse" xlink:href="#linearGradient2060"/><linearGradient id="linearGradient4044" x1="233.887" x2="159.435" y1="142.784" y2="209.561" gradientUnits="userSpaceOnUse" xlink:href="#linearGradient3920"/><linearGradient id="linearGradient4042" x1="233.887" x2="159.435" y1="142.784" y2="209.561" gradientUnits="userSpaceOnUse" xlink:href="#linearGradient3920"/><linearGradient id="linearGradient4040" x1="2" x2="109" y1="63.1" y2="128.695" gradientTransform="translate(0.000000,-1.000000)" gradientUnits="userSpaceOnUse" xlink:href="#linearGradient2060"/><linearGradient id="linearGradient4034"><stop style="stop-color:#fff;stop-opacity:.5" id="stop4036" offset="0"/><stop style="stop-color:#fff;stop-opacity:0" id="stop4038" offset="1"/></linearGradient><linearGradient id="linearGradient4028"><stop style="stop-color:#ebf0d0;stop-opacity:1" id="stop4030" offset="0"/><stop style="stop-color:#ffffeb;stop-opacity:1" id="stop4032" offset="1"/></linearGradient><linearGradient id="linearGradient4188" x1="2" x2="109" y1="63.1" y2="128.695" gradientTransform="translate(0.000000,-1.000000)" gradientUnits="userSpaceOnUse" xlink:href="#linearGradient2060"/></defs><g id="layer1"><g id="g5630"><path id="rect1306" d="M 18.000000,1.9999995 L 121.00000,1.9999995 C 129.86400,1.9999995 137.00000,9.1359995 137.00000,18.000000 L 137.00000,171.00000 C 137.00000,179.86400 129.86400,187.00000 121.00000,187.00000 L 18.000000,187.00000 C 9.1360000,187.00000 2.0000000,179.86400 2.0000000,171.00000 L 2.0000000,18.000000 C 2.0000000,9.1359995 9.1360000,1.9999995 18.000000,1.9999995 z" style="fill:#fff;fill-opacity:1;stroke:#000;stroke-width:.7;stroke-miterlimit:4;stroke-dashoffset:0;stroke-opacity:1"/></g></g><path style="font-size:37.418461;font-style:normal;font-variant:normal;font-weight:700;font-stretch:normal;fill:red;fill-opacity:1;stroke:none;stroke-width:1px;stroke-linecap:butt;stroke-linejoin:miter;stroke-opacity:1;font-family:Bitstream Vera Sans;text-anchor:start;writing-mode:lr-tb" id="text1386" d="M 21.308961,27.188843 C 20.190325,27.188857 19.348588,27.630915 18.783748,28.515018 C 18.229963,29.385751 17.953077,30.698530 17.953085,32.453357 C 17.953077,34.208203 18.229963,35.527680 18.783748,36.411790 C 19.348588,37.282516 20.190325,37.717876 21.308961,37.717872 C 22.438649,37.717876 23.280386,37.282516 23.834175,36.411790 C 24.399010,35.527680 24.681435,34.208203 24.681451,32.453357 C 24.681435,30.698530 24.399010,29.385751 23.834175,28.515018 C 23.280386,27.630915 22.438649,27.188857 21.308961,27.188843 M 29.216867,12.781754 L 29.216867,18.327580 C 28.164676,17.724797 27.173420,17.282739 26.243096,17.001404 C 25.312738,16.706723 24.404548,16.559371 23.518523,16.559345 C 21.613525,16.559371 20.129409,17.202364 19.066173,18.488327 C 18.002916,19.760943 17.382689,21.656433 17.205489,24.174808 C 17.936463,23.518436 18.728360,23.029493 19.581183,22.707977 C 20.433985,22.373104 21.364326,22.205658 22.372209,22.205638 C 24.908483,22.205658 26.951910,23.103170 28.502498,24.898176 C 30.064123,26.693217 30.844944,29.044161 30.844966,31.951018 C 30.844944,35.165996 29.975519,37.744668 28.236686,39.687042 C 26.497815,41.616024 24.166425,42.580515 21.242509,42.580515 C 18.019529,42.580515 15.522007,41.267736 13.749933,38.642175 C 11.988926,36.003227 11.108425,32.265827 11.108427,27.429966 C 11.108425,22.473572 12.138445,18.582121 14.198491,15.755603 C 16.269602,12.915741 19.104927,11.495797 22.704474,11.495766 C 23.845236,11.495797 24.952785,11.602963 26.027124,11.817263 C 27.101429,12.031625 28.164676,12.353122 29.216867,12.781754"/><g style="fill:red;fill-opacity:1" id="g1390" transform="matrix(0.286388,0.000000,0.000000,0.388772,-29.60833,-9.472414)"><path style="fill-rule:evenodd;stroke:none;stroke-width:3.4289415;stroke-linecap:butt;stroke-linejoin:round;stroke-miterlimit:4;stroke-opacity:1" id="path1392" d="M 147.20601,156.41679 C 144.67035,156.42954 141.88421,156.89888 138.79976,157.94804 C 105.17650,177.48492 150.50459,208.98936 169.64351,236.04179 L 170.19602,236.18010 C 191.22900,206.61098 231.26801,174.07246 200.67476,157.94804 C 176.43799,149.70401 169.96344,177.14611 169.73726,178.13554 C 169.53987,177.27202 164.59485,156.32936 147.20601,156.41679 z" transform="matrix(1.105375,0.000000,0.000000,1.079637,-12.01415,-18.86731)"/></g><path style="font-size:37.418461;font-style:normal;font-variant:normal;font-weight:700;font-stretch:normal;fill:red;fill-opacity:1;stroke:none;stroke-width:1px;stroke-linecap:butt;stroke-linejoin:miter;stroke-opacity:1;font-family:Bitstream Vera Sans;text-anchor:start;writing-mode:lr-tb" id="text14132" d="M 117.55649,161.81109 C 118.67513,161.81108 119.51686,161.36901 120.08171,160.48491 C 120.63549,159.61418 120.91237,158.30140 120.91236,156.54657 C 120.91237,154.79173 120.63549,153.47225 120.08171,152.58814 C 119.51686,151.71742 118.67513,151.28205 117.55649,151.28205 C 116.42680,151.28205 115.58506,151.71742 115.03127,152.58814 C 114.46645,153.47225 114.18401,154.79173 114.18401,156.54657 C 114.18401,158.30140 114.46645,159.61418 115.03127,160.48491 C 115.58506,161.36901 116.42680,161.81108 117.55649,161.81109 M 109.64859,176.21817 L 109.64859,170.67235 C 110.70077,171.27513 111.69204,171.71719 112.62236,171.99852 C 113.55272,172.29321 114.46091,172.44055 115.34693,172.44059 C 117.25193,172.44055 118.73604,171.79756 119.79928,170.51160 C 120.86254,169.23899 121.48277,167.34349 121.65997,164.82512 C 120.92899,165.48150 120.13709,165.97043 119.28427,166.29195 C 118.43147,166.62683 117.50113,166.79427 116.49325,166.79429 C 113.95697,166.79427 111.91355,165.89676 110.36296,164.10175 C 108.80133,162.30671 108.02051,159.95577 108.02048,157.04892 C 108.02051,153.83393 108.88994,151.25526 110.62877,149.31288 C 112.36764,147.38390 114.69903,146.41942 117.62295,146.41942 C 120.84592,146.41942 123.34345,147.73219 125.11552,150.35775 C 126.87653,152.99670 127.75703,156.73410 127.75702,161.56996 C 127.75703,166.52635 126.72701,170.41781 124.66696,173.24433 C 122.59586,176.08418 119.76052,177.50413 116.16098,177.50416 C 115.02022,177.50413 113.91267,177.39697 112.83833,177.18267 C 111.76402,176.96830 110.70077,176.64680 109.64859,176.21817"/><g style="fill:red;fill-opacity:1" id="g14136" transform="matrix(-0.286429,0.000000,0.000000,-0.388772,168.4791,198.3135)"><path style="fill-rule:evenodd;stroke:none;stroke-width:3.4289415;stroke-linecap:butt;stroke-linejoin:round;stroke-miterlimit:4;stroke-opacity:1" id="path14138" d="M 147.20601,156.41679 C 144.67035,156.42954 141.88421,156.89888 138.79976,157.94804 C 105.17650,177.48492 150.50459,208.98936 169.64351,236.04179 L 170.19602,236.18010 C 191.22900,206.61098 231.26801,174.07246 200.67476,157.94804 C 176.43799,149.70401 169.96344,177.14611 169.73726,178.13554 C 169.53987,177.27202 164.59485,156.32936 147.20601,156.41679 z" transform="matrix(1.105375,0.000000,0.000000,1.079637,-12.01415,-18.86731)"/></g><g style="fill-opacity:1;fill:red" id="g1861" transform="matrix(0.166355,0.000000,0.000000,0.229660,22.05389,10.55238)"><path style="fill-rule:evenodd;stroke:none;stroke-width:3.4289415;stroke-linecap:butt;stroke-linejoin:round;stroke-miterlimit:4;stroke-opacity:1" id="path1863" d="M 147.20601,156.41679 C 144.67035,156.42954 141.88421,156.89888 138.79976,157.94804 C 105.17650,177.48492 150.50459,208.98936 169.64351,236.04179 L 170.19602,236.18010 C 191.22900,206.61098 231.26801,174.07246 200.67476,157.94804 C 176.43799,149.70401 169.96344,177.14611 169.73726,178.13554 C 169.53987,177.27202 164.59485,156.32936 147.20601,156.41679 z" transform="matrix(1.105375,0.000000,0.000000,1.079637,-12.01415,-18.86731)"/></g><g style="fill-opacity:1;fill:red" id="g4204" transform="matrix(0.166355,0.000000,0.000000,0.229660,58.05389,10.77234)"><path style="fill-rule:evenodd;stroke:none;stroke-width:3.4289415;stroke-linecap:butt;stroke-linejoin:round;stroke-miterlimit:4;stroke-opacity:1" id="path4206" d="M 147.20601,156.41679 C 144.67035,156.42954 141.88421,156.89888 138.79976,157.94804 C 105.17650,177.48492 150.50459,208.98936 169.64351,236.04179 L 170.19602,236.18010 C 191.22900,206.61098 231.26801,174.07246 200.67476,157.94804 C 176.43799,149.70401 169.96344,177.14611 169.73726,178.13554 C 169.53987,177.27202 164.59485,156.32936 147.20601,156.41679 z" transform="matrix(1.105375,0.000000,0.000000,1.079637,-12.01415,-18.86731)"/></g><g style="fill-opacity:1;fill:red" id="g4208" transform="matrix(0.166355,0.000000,0.000000,0.229660,22.05389,46.77234)"><path style="fill-rule:evenodd;stroke:none;stroke-width:3.4289415;stroke-linecap:butt;stroke-linejoin:round;stroke-miterlimit:4;stroke-opacity:1" id="path4210" d="M 147.20601,156.41679 C 144.67035,156.42954 141.88421,156.89888 138.79976,157.94804 C 105.17650,177.48492 150.50459,208.98936 169.64351,236.04179 L 170.19602,236.18010 C 191.22900,206.61098 231.26801,174.07246 200.67476,157.94804 C 176.43799,149.70401 169.96344,177.14611 169.73726,178.13554 C 169.53987,177.27202 164.59485,156.32936 147.20601,156.41679 z" transform="matrix(1.105375,0.000000,0.000000,1.079637,-12.01415,-18.86731)"/></g><g style="fill-opacity:1;fill:red" id="g4212" transform="matrix(-0.166355,0.000000,0.000000,-0.229660,115.9461,135.4476)"><path style="fill-rule:evenodd;stroke:none;stroke-width:3.4289415;stroke-linecap:butt;stroke-linejoin:round;stroke-miterlimit:4;stroke-opacity:1" id="path4214" d="M 147.20601,156.41679 C 144.67035,156.42954 141.88421,156.89888 138.79976,157.94804 C 105.17650,177.48492 150.50459,208.98936 169.64351,236.04179 L 170.19602,236.18010 C 191.22900,206.61098 231.26801,174.07246 200.67476,157.94804 C 176.43799,149.70401 169.96344,177.14611 169.73726,178.13554 C 169.53987,177.27202 164.59485,156.32936 147.20601,156.41679 z" transform="matrix(1.105375,0.000000,0.000000,1.079637,-12.01415,-18.86731)"/></g><g style="fill-opacity:1;fill:red" id="g4216" transform="matrix(-0.166355,0.000000,0.000000,-0.229660,82.30610,176.2277)"><path style="fill-rule:evenodd;stroke:none;stroke-width:3.4289415;stroke-linecap:butt;stroke-linejoin:round;stroke-miterlimit:4;stroke-opacity:1" id="path4218" d="M 147.20601,156.41679 C 144.67035,156.42954 141.88421,156.89888 138.79976,157.94804 C 105.17650,177.48492 150.50459,208.98936 169.64351,236.04179 L 170.19602,236.18010 C 191.22900,206.61098 231.26801,174.07246 200.67476,157.94804 C 176.43799,149.70401 169.96344,177.14611 169.73726,178.13554 C 169.53987,177.27202 164.59485,156.32936 147.20601,156.41679 z" transform="matrix(1.105375,0.000000,0.000000,1.079637,-12.01415,-18.86731)"/></g><g style="fill-opacity:1;fill:red" id="g4220" transform="matrix(-0.166355,0.000000,0.000000,-0.229660,117.3061,176.2277)"><path style="fill-rule:evenodd;stroke:none;stroke-width:3.4289415;stroke-linecap:butt;stroke-linejoin:round;stroke-miterlimit:4;stroke-opacity:1" id="path4222" d="M 147.20601,156.41679 C 144.67035,156.42954 141.88421,156.89888 138.79976,157.94804 C 105.17650,177.48492 150.50459,208.98936 169.64351,236.04179 L 170.19602,236.18010 C 191.22900,206.61098 231.26801,174.07246 200.67476,157.94804 C 176.43799,149.70401 169.96344,177.14611 169.73726,178.13554 C 169.53987,177.27202 164.59485,156.32936 147.20601,156.41679 z" transform="matrix(1.105375,0.000000,0.000000,1.079637,-12.01415,-18.86731)"/></g><metadata/></svg>