<svg xmlns="http://www.w3.org/2000/svg" xmlns:cc="http://web.resource.org/cc/" xmlns:svg="http://www.w3.org/2000/svg" xmlns:xlink="http://www.w3.org/1999/xlink" id="svg2" height="190" x="0" y="0" preserveAspectRatio="xMinYMin meet" version="1.0" viewBox="0 0 140 190"><defs id="defs3"><linearGradient id="linearGradient3920"><stop style="stop-color:#fff;stop-opacity:1" id="stop3922" offset="0"/><stop style="stop-color:#fff;stop-opacity:0" id="stop3924" offset="1"/></linearGradient><linearGradient id="linearGradient2060"><stop style="stop-color:#ebf0d0;stop-opacity:1" id="stop2062" offset="0"/><stop style="stop-color:#ffffeb;stop-opacity:1" id="stop2064" offset="1"/></linearGradient><linearGradient id="linearGradient1575"><stop style="stop-color:#fff;stop-opacity:.5" id="stop1576" offset="0"/><stop style="stop-color:#fff;stop-opacity:0" id="stop1577" offset="1"/></linearGradient><linearGradient id="linearGradient4853" x1="2" x2="109" y1="63.1" y2="128.695" gradientTransform="translate(0.000000,-1.000000)" gradientUnits="userSpaceOnUse" xlink:href="#linearGradient2060"/><linearGradient id="linearGradient3926" x1="233.887" x2="159.435" y1="142.784" y2="209.561" gradientUnits="userSpaceOnUse" xlink:href="#linearGradient3920"/><linearGradient id="linearGradient1368" x1="233.887" x2="159.435" y1="142.784" y2="209.561" gradientUnits="userSpaceOnUse" xlink:href="#linearGradient3920"/><linearGradient id="linearGradient1366" x1="2" x2="109" y1="63.1" y2="128.695" gradientTransform="translate(0.000000,-1.000000)" gradientUnits="userSpaceOnUse" xlink:href="#linearGradient2060"/><linearGradient id="linearGradient1360"><stop style="stop-color:#fff;stop-opacity:.5" id="stop1362" offset="0"/><stop style="stop-color:#fff;stop-opacity:0" id="stop1364" offset="1"/></linearGradient><linearGradient id="linearGradient1354"><stop style="stop-color:#ebf0d0;stop-opacity:1" id="stop1356" offset="0"/><stop style="stop-color:#ffffeb;stop-opacity:1" id="stop1358" offset="1"/></linearGradient><linearGradient id="linearGradient1398" x1="2" x2="109" y1="63.1" y2="128.695" gradientTransform="translate(0.000000,-1.000000)" gradientUnits="userSpaceOnUse" xlink:href="#linearGradient2060"/><linearGradient id="linearGradient4980" x1="2" x2="109" y1="63.1" y2="128.695" gradientTransform="translate(0.000000,-1.000000)" gradientUnits="userSpaceOnUse" xlink:href="#linearGradient2060"/><linearGradient id="linearGradient4913"><stop style="stop-color:#ebf0d0;stop-opacity:1" id="stop4915" offset="0"/><stop style="stop-color:#ffffeb;stop-opacity:1" id="stop4917" offset="1"/></linearGradient><linearGradient id="linearGradient4919"><stop style="stop-color:#fff;stop-opacity:.5" id="stop4921" offset="0"/><stop style="stop-color:#fff;stop-opacity:0" id="stop4923" offset="1"/></linearGradient><linearGradient id="linearGradient4925" x1="2" x2="109" y1="63.1" y2="128.695" gradientTransform="translate(0.000000,-1.000000)" gradientUnits="userSpaceOnUse" xlink:href="#linearGradient2060"/><linearGradient id="linearGradient4927" x1="233.887" x2="159.435" y1="142.784" y2="209.561" gradientUnits="userSpaceOnUse" xlink:href="#linearGradient3920"/><linearGradient id="linearGradient4929" x1="233.887" x2="159.435" y1="142.784" y2="209.561" gradientUnits="userSpaceOnUse" xlink:href="#linearGradient3920"/><linearGradient id="linearGradient4931" x1="2" x2="109" y1="63.1" y2="128.695" gradientTransform="translate(0.000000,-1.000000)" gradientUnits="userSpaceOnUse" xlink:href="#linearGradient2060"/><linearGradient id="linearGradient4933"><stop style="stop-color:#fff;stop-opacity:.5" id="stop4935" offset="0"/><stop style="stop-color:#fff;stop-opacity:0" id="stop4937" offset="1"/></linearGradient><linearGradient id="linearGradient4939"><stop style="stop-color:#ebf0d0;stop-opacity:1" id="stop4941" offset="0"/><stop style="stop-color:#ffffeb;stop-opacity:1" id="stop4943" offset="1"/></linearGradient><linearGradient id="linearGradient4945" x1="2" x2="109" y1="63.1" y2="128.695" gradientTransform="translate(0.000000,-1.000000)" gradientUnits="userSpaceOnUse" xlink:href="#linearGradient2060"/><linearGradient id="linearGradient4523"><stop style="stop-color:#ebf0d0;stop-opacity:1" id="stop4525" offset="0"/><stop style="stop-color:#ffffeb;stop-opacity:1" id="stop4527" offset="1"/></linearGradient><linearGradient id="linearGradient4529"><stop style="stop-color:#fff;stop-opacity:.5" id="stop4531" offset="0"/><stop style="stop-color:#fff;stop-opacity:0" id="stop4533" offset="1"/></linearGradient><linearGradient id="linearGradient4535" x1="2" x2="109" y1="63.1" y2="128.695" gradientTransform="translate(0.000000,-1.000000)" gradientUnits="userSpaceOnUse" xlink:href="#linearGradient2060"/><linearGradient id="linearGradient4537" x1="233.887" x2="159.435" y1="142.784" y2="209.561" gradientUnits="userSpaceOnUse" xlink:href="#linearGradient3920"/><linearGradient id="linearGradient4539" x1="233.887" x2="159.435" y1="142.784" y2="209.561" gradientUnits="userSpaceOnUse" xlink:href="#linearGradient3920"/><linearGradient id="linearGradient4541" x1="2" x2="109" y1="63.1" y2="128.695" gradientTransform="translate(0.000000,-1.000000)" gradientUnits="userSpaceOnUse" xlink:href="#linearGradient2060"/><linearGradient id="linearGradient4543"><stop style="stop-color:#fff;stop-opacity:.5" id="stop4545" offset="0"/><stop style="stop-color:#fff;stop-opacity:0" id="stop4547" offset="1"/></linearGradient><linearGradient id="linearGradient4549"><stop style="stop-color:#ebf0d0;stop-opacity:1" id="stop4551" offset="0"/><stop style="stop-color:#ffffeb;stop-opacity:1" id="stop4553" offset="1"/></linearGradient><linearGradient id="linearGradient4555" x1="2" x2="109" y1="63.1" y2="128.695" gradientTransform="translate(0.000000,-1.000000)" gradientUnits="userSpaceOnUse" xlink:href="#linearGradient2060"/><linearGradient id="linearGradient3891"><stop style="stop-color:#ebf0d0;stop-opacity:1" id="stop3893" offset="0"/><stop style="stop-color:#ffffeb;stop-opacity:1" id="stop3895" offset="1"/></linearGradient><linearGradient id="linearGradient3897"><stop style="stop-color:#fff;stop-opacity:.5" id="stop3899" offset="0"/><stop style="stop-color:#fff;stop-opacity:0" id="stop3901" offset="1"/></linearGradient><linearGradient id="linearGradient3903" x1="2" x2="109" y1="63.1" y2="128.695" gradientTransform="translate(0.000000,-1.000000)" gradientUnits="userSpaceOnUse" xlink:href="#linearGradient2060"/><linearGradient id="linearGradient3905" x1="233.887" x2="159.435" y1="142.784" y2="209.561" gradientUnits="userSpaceOnUse" xlink:href="#linearGradient3920"/><linearGradient id="linearGradient3907" x1="233.887" x2="159.435" y1="142.784" y2="209.561" gradientUnits="userSpaceOnUse" xlink:href="#linearGradient3920"/><linearGradient id="linearGradient3909" x1="2" x2="109" y1="63.1" y2="128.695" gradientTransform="translate(0.000000,-1.000000)" gradientUnits="userSpaceOnUse" xlink:href="#linearGradient2060"/><linearGradient id="linearGradient3911"><stop style="stop-color:#fff;stop-opacity:.5" id="stop3913" offset="0"/><stop style="stop-color:#fff;stop-opacity:0" id="stop3915" offset="1"/></linearGradient><linearGradient id="linearGradient3917"><stop style="stop-color:#ebf0d0;stop-opacity:1" id="stop3919" offset="0"/><stop style="stop-color:#ffffeb;stop-opacity:1" id="stop3921" offset="1"/></linearGradient><linearGradient id="linearGradient3923" x1="2" x2="109" y1="63.1" y2="128.695" gradientTransform="translate(0.000000,-1.000000)" gradientUnits="userSpaceOnUse" xlink:href="#linearGradient2060"/><linearGradient id="linearGradient3390"><stop style="stop-color:#ebf0d0;stop-opacity:1" id="stop3392" offset="0"/><stop style="stop-color:#ffffeb;stop-opacity:1" id="stop3394" offset="1"/></linearGradient><linearGradient id="linearGradient3396"><stop style="stop-color:#fff;stop-opacity:.5" id="stop3398" offset="0"/><stop style="stop-color:#fff;stop-opacity:0" id="stop3400" offset="1"/></linearGradient><linearGradient id="linearGradient3402" x1="2" x2="109" y1="63.1" y2="128.695" gradientTransform="translate(0.000000,-1.000000)" gradientUnits="userSpaceOnUse" xlink:href="#linearGradient2060"/><linearGradient id="linearGradient3404" x1="233.887" x2="159.435" y1="142.784" y2="209.561" gradientUnits="userSpaceOnUse" xlink:href="#linearGradient3920"/><linearGradient id="linearGradient3406" x1="233.887" x2="159.435" y1="142.784" y2="209.561" gradientUnits="userSpaceOnUse" xlink:href="#linearGradient3920"/><linearGradient id="linearGradient3408" x1="2" x2="109" y1="63.1" y2="128.695" gradientTransform="translate(0.000000,-1.000000)" gradientUnits="userSpaceOnUse" xlink:href="#linearGradient2060"/><linearGradient id="linearGradient3410"><stop style="stop-color:#fff;stop-opacity:.5" id="stop3412" offset="0"/><stop style="stop-color:#fff;stop-opacity:0" id="stop3414" offset="1"/></linearGradient><linearGradient id="linearGradient3416"><stop style="stop-color:#ebf0d0;stop-opacity:1" id="stop3418" offset="0"/><stop style="stop-color:#ffffeb;stop-opacity:1" id="stop3420" offset="1"/></linearGradient><linearGradient id="linearGradient3422" x1="2" x2="109" y1="63.1" y2="128.695" gradientTransform="translate(0.000000,-1.000000)" gradientUnits="userSpaceOnUse" xlink:href="#linearGradient2060"/><linearGradient id="linearGradient2535"><stop style="stop-color:#ebf0d0;stop-opacity:1" id="stop2537" offset="0"/><stop style="stop-color:#ffffeb;stop-opacity:1" id="stop2539" offset="1"/></linearGradient><linearGradient id="linearGradient2541"><stop style="stop-color:#fff;stop-opacity:.5" id="stop2543" offset="0"/><stop style="stop-color:#fff;stop-opacity:0" id="stop2545" offset="1"/></linearGradient><linearGradient id="linearGradient2547" x1="2" x2="109" y1="63.1" y2="128.695" gradientTransform="translate(0.000000,-1.000000)" gradientUnits="userSpaceOnUse" xlink:href="#linearGradient2060"/><linearGradient id="linearGradient2549" x1="233.887" x2="159.435" y1="142.784" y2="209.561" gradientUnits="userSpaceOnUse" xlink:href="#linearGradient3920"/><linearGradient id="linearGradient2551" x1="233.887" x2="159.435" y1="142.784" y2="209.561" gradientUnits="userSpaceOnUse" xlink:href="#linearGradient3920"/><linearGradient id="linearGradient2553" x1="2" x2="109" y1="63.1" y2="128.695" gradientTransform="translate(0.000000,-1.000000)" gradientUnits="userSpaceOnUse" xlink:href="#linearGradient2060"/><linearGradient id="linearGradient2555"><stop style="stop-color:#fff;stop-opacity:.5" id="stop2557" offset="0"/><stop style="stop-color:#fff;stop-opacity:0" id="stop2559" offset="1"/></linearGradient><linearGradient id="linearGradient2561"><stop style="stop-color:#ebf0d0;stop-opacity:1" id="stop2563" offset="0"/><stop style="stop-color:#ffffeb;stop-opacity:1" id="stop2565" offset="1"/></linearGradient><linearGradient id="linearGradient2567" x1="2" x2="109" y1="63.1" y2="128.695" gradientTransform="translate(0.000000,-1.000000)" gradientUnits="userSpaceOnUse" xlink:href="#linearGradient2060"/><linearGradient id="linearGradient2318"><stop style="stop-color:#ebf0d0;stop-opacity:1" id="stop2320" offset="0"/><stop style="stop-color:#ffffeb;stop-opacity:1" id="stop2322" offset="1"/></linearGradient><linearGradient id="linearGradient2324"><stop style="stop-color:#fff;stop-opacity:.5" id="stop2326" offset="0"/><stop style="stop-color:#fff;stop-opacity:0" id="stop2328" offset="1"/></linearGradient><linearGradient id="linearGradient2330" x1="2" x2="109" y1="63.1" y2="128.695" gradientTransform="translate(0.000000,-1.000000)" gradientUnits="userSpaceOnUse" xlink:href="#linearGradient2060"/><linearGradient id="linearGradient2332" x1="233.887" x2="159.435" y1="142.784" y2="209.561" gradientUnits="userSpaceOnUse" xlink:href="#linearGradient3920"/><linearGradient id="linearGradient2334" x1="233.887" x2="159.435" y1="142.784" y2="209.561" gradientUnits="userSpaceOnUse" xlink:href="#linearGradient3920"/><linearGradient id="linearGradient2336" x1="2" x2="109" y1="63.1" y2="128.695" gradientTransform="translate(0.000000,-1.000000)" gradientUnits="userSpaceOnUse" xlink:href="#linearGradient2060"/><linearGradient id="linearGradient2338"><stop style="stop-color:#fff;stop-opacity:.5" id="stop2340" offset="0"/><stop style="stop-color:#fff;stop-opacity:0" id="stop2342" offset="1"/></linearGradient><linearGradient id="linearGradient2344"><stop style="stop-color:#ebf0d0;stop-opacity:1" id="stop2346" offset="0"/><stop style="stop-color:#ffffeb;stop-opacity:1" id="stop2348" offset="1"/></linearGradient><linearGradient id="linearGradient2350" x1="2" x2="109" y1="63.1" y2="128.695" gradientTransform="translate(0.000000,-1.000000)" gradientUnits="userSpaceOnUse" xlink:href="#linearGradient2060"/><linearGradient id="linearGradient4698" x1="2" x2="109" y1="63.1" y2="128.695" gradientTransform="translate(0.000000,-1.000000)" gradientUnits="userSpaceOnUse" xlink:href="#linearGradient2060"/><linearGradient id="linearGradient4692"><stop style="stop-color:#ebf0d0;stop-opacity:1" id="stop4694" offset="0"/><stop style="stop-color:#ffffeb;stop-opacity:1" id="stop4696" offset="1"/></linearGradient><linearGradient id="linearGradient4686"><stop style="stop-color:#fff;stop-opacity:.5" id="stop4688" offset="0"/><stop style="stop-color:#fff;stop-opacity:0" id="stop4690" offset="1"/></linearGradient><linearGradient id="linearGradient4684" x1="2" x2="109" y1="63.1" y2="128.695" gradientTransform="translate(0.000000,-1.000000)" gradientUnits="userSpaceOnUse" xlink:href="#linearGradient2060"/><linearGradient id="linearGradient4682" x1="233.887" x2="159.435" y1="142.784" y2="209.561" gradientUnits="userSpaceOnUse" xlink:href="#linearGradient3920"/><linearGradient id="linearGradient4680" x1="233.887" x2="159.435" y1="142.784" y2="209.561" gradientUnits="userSpaceOnUse" xlink:href="#linearGradient3920"/><linearGradient id="linearGradient4678" x1="2" x2="109" y1="63.1" y2="128.695" gradientTransform="translate(0.000000,-1.000000)" gradientUnits="userSpaceOnUse" xlink:href="#linearGradient2060"/><linearGradient id="linearGradient4672"><stop style="stop-color:#fff;stop-opacity:.5" id="stop4674" offset="0"/><stop style="stop-color:#fff;stop-opacity:0" id="stop4676" offset="1"/></linearGradient><linearGradient id="linearGradient4666"><stop style="stop-color:#ebf0d0;stop-opacity:1" id="stop4668" offset="0"/><stop style="stop-color:#ffffeb;stop-opacity:1" id="stop4670" offset="1"/></linearGradient><linearGradient id="linearGradient4842" x1="2" x2="109" y1="63.1" y2="128.695" gradientTransform="translate(0.000000,-1.000000)" gradientUnits="userSpaceOnUse" xlink:href="#linearGradient2060"/></defs><g id="layer1"><g id="g5630"><path id="rect1306" d="M 18.000000,1.9999995 L 121.00000,1.9999995 C 129.86400,1.9999995 137.00000,9.1359995 137.00000,18.000000 L 137.00000,171.00000 C 137.00000,179.86400 129.86400,187.00000 121.00000,187.00000 L 18.000000,187.00000 C 9.1360000,187.00000 2.0000000,179.86400 2.0000000,171.00000 L 2.0000000,18.000000 C 2.0000000,9.1359995 9.1360000,1.9999995 18.000000,1.9999995 z" style="fill:#fff;fill-opacity:1;stroke:#000;stroke-width:.7;stroke-miterlimit:4;stroke-dashoffset:0;stroke-opacity:1"/></g></g><path style="font-size:37.418461;font-style:normal;font-variant:normal;font-weight:700;font-stretch:normal;fill:red;fill-opacity:1;stroke:none;stroke-width:1px;stroke-linecap:butt;stroke-linejoin:miter;stroke-opacity:1;font-family:Bitstream Vera Sans;text-anchor:start;writing-mode:lr-tb" id="text1386" d="M 11.274559,11.998106 L 29.964464,11.998106 L 29.964464,16.358410 L 20.295553,41.997802 L 14.065585,41.997802 L 23.219485,17.684585 L 11.274559,17.684585 L 11.274559,11.998106"/><g style="fill:red;fill-opacity:1" id="g1390" transform="matrix(0.286388,0.000000,0.000000,0.388772,-29.60833,-9.472414)"><path style="fill-rule:evenodd;stroke:none;stroke-width:3.4289415;stroke-linecap:butt;stroke-linejoin:round;stroke-miterlimit:4;stroke-opacity:1" id="path1392" d="M 147.20601,156.41679 C 144.67035,156.42954 141.88421,156.89888 138.79976,157.94804 C 105.17650,177.48492 150.50459,208.98936 169.64351,236.04179 L 170.19602,236.18010 C 191.22900,206.61098 231.26801,174.07246 200.67476,157.94804 C 176.43799,149.70401 169.96344,177.14611 169.73726,178.13554 C 169.53987,177.27202 164.59485,156.32936 147.20601,156.41679 z" transform="matrix(1.105375,0.000000,0.000000,1.079637,-12.01415,-18.86731)"/></g><path style="font-size:37.418461;font-style:normal;font-variant:normal;font-weight:700;font-stretch:normal;fill:red;fill-opacity:1;stroke:none;stroke-width:1px;stroke-linecap:butt;stroke-linejoin:miter;stroke-opacity:1;font-family:Bitstream Vera Sans;text-anchor:start;writing-mode:lr-tb" id="text14684" d="M 127.59090,177.00182 L 108.90099,177.00182 L 108.90099,172.64151 L 118.56990,147.00213 L 124.79986,147.00213 L 115.64597,171.31535 L 127.59090,171.31535 L 127.59090,177.00182"/><g style="fill:red;fill-opacity:1" id="g14688" transform="matrix(-0.286429,0.000000,0.000000,-0.388772,168.4791,198.3135)"><path style="fill-rule:evenodd;stroke:none;stroke-width:3.4289415;stroke-linecap:butt;stroke-linejoin:round;stroke-miterlimit:4;stroke-opacity:1" id="path14690" d="M 147.20601,156.41679 C 144.67035,156.42954 141.88421,156.89888 138.79976,157.94804 C 105.17650,177.48492 150.50459,208.98936 169.64351,236.04179 L 170.19602,236.18010 C 191.22900,206.61098 231.26801,174.07246 200.67476,157.94804 C 176.43799,149.70401 169.96344,177.14611 169.73726,178.13554 C 169.53987,177.27202 164.59485,156.32936 147.20601,156.41679 z" transform="matrix(1.105375,0.000000,0.000000,1.079637,-12.01415,-18.86731)"/></g><g style="fill-opacity:1;fill:red" id="g1861" transform="matrix(0.166355,0.000000,0.000000,0.229660,22.05389,10.77234)"><path style="fill-rule:evenodd;stroke:none;stroke-width:3.4289415;stroke-linecap:butt;stroke-linejoin:round;stroke-miterlimit:4;stroke-opacity:1" id="path1863" d="M 147.20601,156.41679 C 144.67035,156.42954 141.88421,156.89888 138.79976,157.94804 C 105.17650,177.48492 150.50459,208.98936 169.64351,236.04179 L 170.19602,236.18010 C 191.22900,206.61098 231.26801,174.07246 200.67476,157.94804 C 176.43799,149.70401 169.96344,177.14611 169.73726,178.13554 C 169.53987,177.27202 164.59485,156.32936 147.20601,156.41679 z" transform="matrix(1.105375,0.000000,0.000000,1.079637,-12.01415,-18.86731)"/></g><g style="fill-opacity:1;fill:red" id="g4856" transform="matrix(0.166355,0.000000,0.000000,0.229660,58.05389,10.77234)"><path style="fill-rule:evenodd;stroke:none;stroke-width:3.4289415;stroke-linecap:butt;stroke-linejoin:round;stroke-miterlimit:4;stroke-opacity:1" id="path4858" d="M 147.20601,156.41679 C 144.67035,156.42954 141.88421,156.89888 138.79976,157.94804 C 105.17650,177.48492 150.50459,208.98936 169.64351,236.04179 L 170.19602,236.18010 C 191.22900,206.61098 231.26801,174.07246 200.67476,157.94804 C 176.43799,149.70401 169.96344,177.14611 169.73726,178.13554 C 169.53987,177.27202 164.59485,156.32936 147.20601,156.41679 z" transform="matrix(1.105375,0.000000,0.000000,1.079637,-12.01415,-18.86731)"/></g><g style="fill-opacity:1;fill:red" id="g4860" transform="matrix(0.166355,0.000000,0.000000,0.229660,40.69390,25.55238)"><path style="fill-rule:evenodd;stroke:none;stroke-width:3.4289415;stroke-linecap:butt;stroke-linejoin:round;stroke-miterlimit:4;stroke-opacity:1" id="path4862" d="M 147.20601,156.41679 C 144.67035,156.42954 141.88421,156.89888 138.79976,157.94804 C 105.17650,177.48492 150.50459,208.98936 169.64351,236.04179 L 170.19602,236.18010 C 191.22900,206.61098 231.26801,174.07246 200.67476,157.94804 C 176.43799,149.70401 169.96344,177.14611 169.73726,178.13554 C 169.53987,177.27202 164.59485,156.32936 147.20601,156.41679 z" transform="matrix(1.105375,0.000000,0.000000,1.079637,-12.01415,-18.86731)"/></g><g style="fill-opacity:1;fill:red" id="g4864" transform="matrix(0.166355,0.000000,0.000000,0.229660,40.69390,48.77234)"><path style="fill-rule:evenodd;stroke:none;stroke-width:3.4289415;stroke-linecap:butt;stroke-linejoin:round;stroke-miterlimit:4;stroke-opacity:1" id="path4866" d="M 147.20601,156.41679 C 144.67035,156.42954 141.88421,156.89888 138.79976,157.94804 C 105.17650,177.48492 150.50459,208.98936 169.64351,236.04179 L 170.19602,236.18010 C 191.22900,206.61098 231.26801,174.07246 200.67476,157.94804 C 176.43799,149.70401 169.96344,177.14611 169.73726,178.13554 C 169.53987,177.27202 164.59485,156.32936 147.20601,156.41679 z" transform="matrix(1.105375,0.000000,0.000000,1.079637,-12.01415,-18.86731)"/></g><g style="fill-opacity:1;fill:red" id="g4868" transform="matrix(-0.166355,0.000000,0.000000,-0.229660,117.3061,176.2277)"><path style="fill-rule:evenodd;stroke:none;stroke-width:3.4289415;stroke-linecap:butt;stroke-linejoin:round;stroke-miterlimit:4;stroke-opacity:1" id="path4870" d="M 147.20601,156.41679 C 144.67035,156.42954 141.88421,156.89888 138.79976,157.94804 C 105.17650,177.48492 150.50459,208.98936 169.64351,236.04179 L 170.19602,236.18010 C 191.22900,206.61098 231.26801,174.07246 200.67476,157.94804 C 176.43799,149.70401 169.96344,177.14611 169.73726,178.13554 C 169.53987,177.27202 164.59485,156.32936 147.20601,156.41679 z" transform="matrix(1.105375,0.000000,0.000000,1.079637,-12.01415,-18.86731)"/></g><g style="fill-opacity:1;fill:red" id="g4872" transform="matrix(-0.166355,0.000000,0.000000,-0.229660,99.30610,161.4476)"><path style="fill-rule:evenodd;stroke:none;stroke-width:3.4289415;stroke-linecap:butt;stroke-linejoin:round;stroke-miterlimit:4;stroke-opacity:1" id="path4874" d="M 147.20601,156.41679 C 144.67035,156.42954 141.88421,156.89888 138.79976,157.94804 C 105.17650,177.48492 150.50459,208.98936 169.64351,236.04179 L 170.19602,236.18010 C 191.22900,206.61098 231.26801,174.07246 200.67476,157.94804 C 176.43799,149.70401 169.96344,177.14611 169.73726,178.13554 C 169.53987,177.27202 164.59485,156.32936 147.20601,156.41679 z" transform="matrix(1.105375,0.000000,0.000000,1.079637,-12.01415,-18.86731)"/></g><g style="fill-opacity:1;fill:red" id="g4876" transform="matrix(-0.166355,0.000000,0.000000,-0.229660,82.30610,176.2277)"><path style="fill-rule:evenodd;stroke:none;stroke-width:3.4289415;stroke-linecap:butt;stroke-linejoin:round;stroke-miterlimit:4;stroke-opacity:1" id="path4878" d="M 147.20601,156.41679 C 144.67035,156.42954 141.88421,156.89888 138.79976,157.94804 C 105.17650,177.48492 150.50459,208.98936 169.64351,236.04179 L 170.19602,236.18010 C 191.22900,206.61098 231.26801,174.07246 200.67476,157.94804 C 176.43799,149.70401 169.96344,177.14611 169.73726,178.13554 C 169.53987,177.27202 164.59485,156.32936 147.20601,156.41679 z" transform="matrix(1.105375,0.000000,0.000000,1.079637,-12.01415,-18.86731)"/></g><metadata/></svg>